<?xml version="1.0" encoding="utf-8"?>
<!-- Generator: Adobe Illustrator 27.5.0, SVG Export Plug-In . SVG Version: 6.00 Build 0)  -->
<svg version="1.1" id="Capa_1" xmlns="http://www.w3.org/2000/svg" xmlns:xlink="http://www.w3.org/1999/xlink" x="0px" y="0px"
	 viewBox="0 0 2427 1855" style="enable-background:new 0 0 2427 1855;" xml:space="preserve">
<g>
	<g>
		<path style="fill:#C61B34;" d="M2259.293,622.197c-5.014-16.094-13.66-30.999-25.697-42.861
			c-7.348-7.242-15.781-13.206-24.858-17.992c0.802-3.645,1.095-7.149,0.748-9.886c-1.689-13.355-11.284-12.854-29.08-17.486
			c-18.447-4.801-23.902,6.344-26.563,14.959c-2.661,8.616,1.501,22.356,12.58,25.96c11.078,3.605,18.104,5.688,26.294,6.758
			c4.484,0.585,8.467-3.052,11.44-8.199c2.897,1.592,5.736,3.292,8.466,5.156c0.752,0.516,1.498,1.039,2.235,1.575
			c0.371,0.267,0.736,0.536,1.101,0.808c0.143,0.107,0.295,0.223,0.429,0.326c1.457,1.156,2.899,2.326,4.296,3.557
			c2.803,2.472,5.46,5.109,7.947,7.9c1.28,1.434,2.493,2.919,3.696,4.419c0.033,0.045,0.047,0.065,0.091,0.125
			c0.271,0.365,0.544,0.727,0.812,1.095c0.578,0.789,1.14,1.586,1.69,2.392c2.194,3.211,4.184,6.561,5.965,10.02
			c0.893,1.733,1.731,3.494,2.52,5.279c0.191,0.435,0.375,0.873,0.566,1.308c-0.775-1.768-0.018-0.02,0.134,0.359
			c0.385,0.958,0.755,1.921,1.11,2.892c1.434,3.917,2.634,7.918,3.612,11.972c0.498,2.066,0.938,4.144,1.324,6.233
			c0.189,1.028,0.366,2.059,0.53,3.09c0.083,0.521,0.159,1.043,0.239,1.564c0.029,0.191,0.055,0.382,0.082,0.574
			c1.123,9.523,1.381,19.075,0.762,28.646c-0.17,2.63-0.399,5.257-0.682,7.876c-0.135,1.254-0.291,2.506-0.443,3.758
			c-0.017,0.134-0.026,0.216-0.033,0.276c-0.015,0.103-0.036,0.25-0.066,0.456c-0.105,0.731-0.211,1.46-0.321,2.189
			c-0.85,5.591-1.928,11.145-3.2,16.657c-2.823,12.234-6.587,24.243-10.994,35.997c-4.934,13.162-10.482,25.459-17.007,38.331
			c-7.456,14.711-15.686,29.024-24.458,42.989c-0.416,0.661-0.849,1.312-1.267,1.972c-6.912-1.478-13.916,0.256-13.916,0.256
			s-24.615,37.099-36.163,51.836c-14.928,19.053-29.996,38.244-49.599,53.476c-19.603,15.233-73.319,51.749-159.044,5.163
			c-85.726-46.587-84.309-111.524-82.191-136.257c2.116-24.736,10.021-47.821,17.887-70.712
			c6.084-17.705,23.821-58.542,23.821-58.542s-1.191-3.443-3.667-7.225c12-26.3,25.714-51.901,42.205-75.664
			c1.948-2.807,3.937-5.589,5.968-8.339c2.088-2.829,3.704-4.943,5.385-7.074c3.878-4.91,7.907-9.704,12.1-14.349
			c7.564-8.376,15.673-16.283,24.423-23.421c0.979-0.801,1.97-1.585,2.964-2.368c0.133-0.105,0.221-0.174,0.29-0.229
			c0.046-0.033,0.096-0.07,0.187-0.139c0.594-0.446,1.184-0.897,1.779-1.339c2.008-1.492,4.048-2.94,6.123-4.34
			c3.954-2.672,8.03-5.167,12.222-7.449c2.003-1.09,4.034-2.131,6.089-3.118c0.974-0.467,1.954-0.923,2.94-1.366
			c0.455-0.204,0.911-0.406,1.37-0.606c0.185-0.081,0.372-0.16,0.559-0.24c0.024-0.009,0.029-0.011,0.056-0.022
			c3.961-1.579,7.952-3.04,12.053-4.22c3.917-1.126,7.896-2.029,11.916-2.69c0.446-0.072,0.89-0.143,1.335-0.209
			c0.195-0.029,0.344-0.054,0.466-0.076c0.85-0.134,1.724-0.203,2.574-0.289c2.004-0.2,4.018-0.337,6.031-0.411
			c3.841-0.141,7.691-0.043,11.519,0.292c0.857,0.076,1.712,0.164,2.567,0.263c0.084,0.01,0.205,0.018,0.332,0.026
			c0.413,0.04,0.833,0.124,1.24,0.185c1.935,0.298,3.862,0.655,5.776,1.074c3.715,0.814,7.379,1.857,10.967,3.11
			c1.737,0.606,3.442,1.284,5.149,1.966c0.071,0.031,0.118,0.053,0.219,0.098c0.397,0.177,0.796,0.352,1.193,0.53
			c0.911,0.411,1.813,0.837,2.711,1.275c1.334,0.652,2.639,1.358,3.945,2.065c-2.703,5.298-3.589,10.62-0.658,14.064
			c5.355,6.293,10.924,11.052,19.977,18.387c9.051,7.335,22.843,3.352,28.625-3.567c5.782-6.92,12.165-17.561-1.9-30.427
			c-13.566-12.41-18.367-20.736-30.492-14.887c-2.486,1.2-5.269,3.353-7.892,6.011c-7.171-4.031-14.755-7.31-22.726-9.588
			c-16.126-4.61-33.189-4.866-49.545-1.306c-18.367,3.996-35.574,12.832-50.64,23.922c-19.819,14.587-36.485,32.751-51.174,52.41
			c-18.779,25.129-34.099,52.754-47.322,81.152c-0.32,0.686-0.62,1.382-0.937,2.07c-4.145-1.559-9.273-1.371-15.46,2.442
			c-7.698,4.999-25.593,55.885-30.697,71.509c-5.914,18.1-11.413,36.573-14.299,55.663l-0.002-0.002
			c-17.084,102.673-22.469,211.687,43.837,259.409c-6.901,14.575-14.525,28.794-22.949,42.551
			c-5.059,8.259-10.377,16.359-15.941,24.288c-2.735,3.897-5.53,7.753-8.38,11.566c-0.466,0.624-2.47,3.241-2.929,3.856
			c-1.572,2.01-3.152,4.015-4.754,5.999c-12.766,15.8-26.527,30.792-41.147,44.895c-7.743,7.471-15.73,14.69-23.934,21.65
			c-3.917,3.323-7.886,6.587-11.901,9.789c-0.724,0.578-3.602,2.823-4.122,3.241c-2.042,1.562-4.093,3.113-6.16,4.641
			c-17.933,13.278-36.724,25.394-56.199,36.287c-10.211,5.713-20.612,11.091-31.174,16.13c-5.057,2.414-10.152,4.748-15.281,7.007
			c-1.292,0.568-2.589,1.125-3.882,1.69c-0.189,0.082-0.792,0.338-1.29,0.548c-2.762,1.152-5.534,2.281-8.313,3.386
			c-22.846,9.082-46.283,16.653-70.095,22.76c-12.234,3.139-24.568,5.883-36.971,8.253c-11.88,2.269-26.168,4.548-35.199,5.67
			c-110.996,13.788-225.088,0.179-331.181-34.488c14.454-7.193,28.683-14.851,42.647-22.98
			c84.774-49.35,160.348-116.039,215.221-197.687c53.754-79.985,84.818-174.97,83.518-271.686
			c-0.347-25.724-1.835-52.423-9.834-77.034c-8.541-26.283-22.782-50.409-41.683-70.576
			c-38.946-41.551-95.374-61.106-151.541-52.565c-80.517,12.243-146.651,75.007-190.896,140.589
			c-20.334-30.577-44.867-58.262-73.613-80.712c-28.556-22.3-61.106-39.879-96.818-47.367c-38.129-7.997-79.926-6-116.431,8.198
			c-104.325,40.571-116.857,169.849-102.317,265.861c10.581,69.869,39.394,135.041,79.294,193.054
			c49.566,72.067,114.28,132.799,188.281,179.297c19.576,12.301,39.738,23.516,60.37,33.729c-6.706,2.161-13.55,4.273-20.616,6.339
			c-22.217,6.496-44.753,11.901-67.512,16.125c-5.394,1.001-10.801,1.936-16.218,2.802c-2.701,0.432-5.405,0.846-8.113,1.245
			c-1.351,0.198-2.704,0.388-4.057,0.585c-0.326,0.047-0.575,0.083-0.792,0.115c-0.111,0.013-0.28,0.033-0.558,0.068
			c-11.12,1.405-22.262,2.584-33.44,3.423c-22.738,1.71-45.578,2.157-68.363,1.203c-10.914-0.457-21.813-1.236-32.68-2.351
			c-2.62-0.269-5.237-0.558-7.855-0.866c-1.306-0.154-2.61-0.316-3.914-0.477c-0.262-0.033-1.207-0.158-1.955-0.257
			c-0.809-0.116-2.005-0.288-2.301-0.333c-1.359-0.206-2.719-0.408-4.077-0.621c-3.042-0.478-6.078-0.987-9.109-1.528
			c-22.073-3.949-43.831-9.612-65.051-16.854c-4.969-1.696-9.908-3.477-14.815-5.342c-2.443-0.929-4.877-1.878-7.303-2.847
			c-0.727-0.289-5.448-2.244-5.826-2.381c-9.745-4.173-19.35-8.678-28.799-13.486c-18.757-9.542-36.906-20.266-54.396-31.97
			c-8.898-5.953-17.626-12.161-26.184-18.596c-0.746-0.561-3.666-2.795-4.097-3.114c-1.633-1.272-3.263-2.548-4.884-3.837
			c-4.139-3.294-8.236-6.641-12.293-10.036c-30.817-25.797-59.224-54.411-85.435-84.856c-6.39-7.422-12.65-14.958-18.784-22.592
			c-2.831-3.523-5.62-7.077-8.41-10.631c-0.078-0.099-0.178-0.227-0.286-0.367c-0.484-0.629-0.968-1.258-1.448-1.888
			c-1.513-1.978-3.017-3.964-4.514-5.954c-10.689-14.22-20.972-28.744-30.866-43.528c-15.167-22.667-29.479-45.963-42.833-69.792
			c2.001-1.507,3.943-3.109,5.803-4.831c13.59-12.589,22.082-29.832,27.494-47.548c12.928-42.323,0.159-91.444-37.911-116.609
			c-34.226-22.625-82.727-20.491-115.29,4.467c-3.166,2.427-6.136,5.015-8.91,7.745c-50.92,50.101-35.78,147.691,37.396,168.978
			c16.336,4.752,34.109,6.351,50.957,3.936c0.7,1.263,1.391,2.533,2.093,3.795c35.267,63.268,77.044,123.31,125.368,177.316
			c58.257,65.107,128.108,122.368,208.318,158.106c87.948,39.186,184.297,49.954,279.529,38.418
			c61.709-7.476,122.251-23.062,179.947-45.945c66.185,25.997,136.063,42.684,206.683,51.462
			c112.629,14.001,230.081,4.668,336.052-37.687c86.667-34.64,165.424-89.498,223.761-162.82
			c24.144-30.343,45.043-62.925,61.33-98.12c68.99,15.803,143.451-41.881,213.184-104.922c18.038-14.293,32.989-31.637,47.18-49.191
			c10.335-12.784,43.295-55.482,43.303-64.66c-0.1-4.368-1.094-7.698-2.642-10.236c15.79-24.898,29.892-50.875,40.99-78.217
			c9.436-23.241,16.477-47.539,19.042-72.548C2266.015,660.438,2265.035,640.629,2259.293,622.197z M2250.994,644.036
			C2250.953,643.713,2250.928,643.478,2250.994,644.036L2250.994,644.036z M399.84,1079.577
			C399.241,1078.801,398.615,1077.984,399.84,1079.577L399.84,1079.577z M1426.646,849.403
			C1426.787,848.364,1427.118,846.228,1426.646,849.403L1426.646,849.403z M1427.642,747.597
			C1427.587,747.049,1427.565,746.757,1427.642,747.597L1427.642,747.597z M1189.341,672.218
			C1187.51,673.657,1188.519,672.851,1189.341,672.218L1189.341,672.218z M1055.379,905.994c0.211-3.364,0.561-6.709,0.917-10.061
			c0.022-0.205,0.036-0.352,0.054-0.522c0.014-0.079,0.025-0.131,0.042-0.225c0.396-2.208,0.697-4.436,1.092-6.646
			c2.852-15.91,7.252-31.53,12.615-46.767c1.402-3.983,2.876-7.941,4.413-11.874c0.781-2.003,1.589-3.994,2.396-5.986
			c0.104-0.256,0.213-0.51,0.318-0.766c0.074-0.154,1.1-2.568,1.327-3.085c0.075-0.172,0.155-0.343,0.231-0.514
			c1.055,2.612,2.117,5.22,3.123,7.853c5.237,13.732,9.713,27.77,13.18,42.056c1.573,6.484,2.939,13.02,4.046,19.6
			c0.258,1.531,0.487,3.065,0.731,4.598c0.009,0.057,0.016,0.115,0.025,0.172c0.223,3.206,0.73,6.404,0.977,9.61
			c0.433,5.661,0.631,11.344,0.496,17.02c-0.061,2.561-0.185,5.123-0.393,7.676c-0.09,1.094-0.215,2.182-0.316,3.273
			c-0.886,4.49-1.765,8.918-3.253,13.26c-0.189,0.555-0.43,1.125-0.655,1.697c-0.852,1.624-1.663,3.254-2.652,4.81
			c-0.193,0.304-0.415,0.6-0.632,0.898c-1.009,0.962-2.047,1.955-3.033,2.961c-0.423,0.276-0.845,0.556-1.282,0.805
			c-0.318,0.182-0.664,0.339-1.006,0.499c-1.349,0.312-2.763,0.658-4.102,1.054c-0.667,0.048-1.334,0.102-1.998,0.115
			c-0.379,0.007-2.927-0.102-4.984-0.208c0.837,0.273,1.029,0.48-1.099-0.059c-0.932-0.054-1.592-0.1-1.587-0.122
			c0.025-0.115,0.14-0.18,0.309-0.213c-0.896-0.238-1.793-0.477-2.689-0.714c0.14,0.143,0.281,0.3,0.419,0.472
			c-0.179-0.222-0.526-0.422-0.93-0.608c-0.077-0.021-0.154-0.041-0.23-0.061c-1.096-0.287-1.64-0.58-1.825-0.791
			c-0.006-0.003-0.016-0.006-0.021-0.01c-0.835-0.453-1.63-0.965-2.441-1.458c-1.127-1.32-2.64-2.641-3.904-3.84
			c-0.529-0.819-1.09-1.622-1.584-2.463c-0.443-0.754-0.847-1.527-1.254-2.299c0.011,0.14-0.003,0.256-0.07,0.314
			c0.037-0.033-0.026-0.306-0.154-0.736c-0.062-0.114-0.121-0.23-0.183-0.344c-1.472-2.708-0.78-1.901-0.166-0.743
			c-0.739-2.203-2.027-5.678-2.169-6.209c-0.695-2.585-1.172-5.201-1.688-7.826c-0.006-0.029-0.009-0.044-0.015-0.072
			c-0.105-1.415-0.295-2.832-0.397-4.247C1054.917,918.854,1054.975,912.408,1055.379,905.994z M1066.759,953.607
			c-0.061-0.037-0.121-0.076-0.182-0.112C1063.44,951.637,1065.492,952.575,1066.759,953.607z M803.227,651.288
			C802.903,651.405,802.796,651.442,803.227,651.288L803.227,651.288z M1075.141,1259.997
			c-29.434-12.423-57.918-26.913-86.586-44.299c-19.497-11.824-38.34-24.676-56.512-38.445c-0.208-0.157-1.043-0.796-1.659-1.269
			c-0.613-0.479-1.521-1.186-1.738-1.356c-2.039-1.609-4.073-3.22-6.097-4.849c-4.492-3.617-8.936-7.298-13.327-11.037
			c-7.851-6.686-15.539-13.564-23.047-20.631c-14.491-13.637-28.322-27.974-41.409-42.962c-6.109-6.996-12.055-14.135-17.83-21.409
			c-0.977-1.232-1.944-2.472-2.911-3.712c-0.371-0.493-2.2-2.875-2.736-3.589c-2.899-3.848-5.749-7.73-8.549-11.65
			c-18.69-26.157-35.25-53.902-48.876-83.034c-1.454-3.109-2.874-6.233-4.258-9.374c-0.603-1.37-1.168-2.765-1.788-4.129
			c-0.223-0.53-0.441-1.062-0.659-1.593c-2.529-6.19-4.914-12.439-7.129-18.748c-5.688-16.188-10.123-32.79-13.648-49.579
			c-5.429-25.859-8.005-47.395-8.311-74.822c-0.139-12.374,0.333-24.761,1.553-37.077c0.261-2.644,0.559-5.284,0.895-7.918
			c0.079-0.554,0.178-1.257,0.216-1.487c0.233-1.416,0.441-2.838,0.677-4.252c1.046-6.263,2.307-12.491,3.812-18.659
			c1.301-5.334,2.782-10.626,4.465-15.85c0.825-2.562,1.698-5.108,2.621-7.635c0.456-1.252,0.926-2.498,1.407-3.74
			c0.11-0.282,0.902-2.208,1.266-3.117c0.539-1.152,2.048-4.465,2.427-5.249c1.12-2.32,2.291-4.615,3.516-6.881
			c2.558-4.734,5.343-9.343,8.378-13.787c0.45-0.657,3.074-4.248,3.022-4.268c1.244-1.562,2.523-3.099,3.838-4.599
			c3.639-4.151,7.538-8.078,11.683-11.726c0.75-0.659,3.392-2.787,3.855-3.21c1.618-1.193,3.247-2.373,4.924-3.481
			c4.685-3.101,9.59-5.871,14.663-8.288c0.999-0.477,2.011-0.934,3.024-1.383c0.185-0.065,0.388-0.137,0.619-0.219
			c2.462-0.872,4.899-1.795,7.393-2.585c4.615-1.461,9.304-2.715,14.014-3.83c4.218-0.999,8.465-1.867,12.737-2.596
			c0.459-0.079,3.091-0.467,4.387-0.671c1.407-0.151,4.01-0.447,4.727-0.513c8.592-0.794,17.241-1.003,25.861-0.599
			c3.956,0.186,7.893,0.538,11.833,0.938c0.474,0.049,0.947,0.112,1.42,0.171c0.041,0.007,0.069,0.012,0.112,0.02
			c2.156,0.39,4.324,0.702,6.478,1.109c7.824,1.482,15.549,3.469,23.124,5.923c3.651,1.184,7.268,2.477,10.846,3.87
			c1.173,0.457,2.916,1.209,3.388,1.408c1.557,0.693,3.117,1.376,4.658,2.105c14.492,6.848,27.797,15.437,40.756,24.813
			c0.052,0.038,0.087,0.063,0.135,0.098c0.424,0.331,0.849,0.66,1.267,0.998c1.521,1.227,3.042,2.452,4.544,3.702
			c3.392,2.823,6.714,5.728,9.971,8.704c6.006,5.492,11.782,11.23,17.338,17.177c5.583,5.977,10.942,12.165,16.081,18.528
			c1.248,1.544,2.453,3.122,3.703,4.665c-3.628-4.478,0.256,0.357,1.14,1.537c2.676,3.574,5.284,7.197,7.832,10.862
			c5.511,7.937,10.689,16.102,15.605,24.421c-12.775,24.075-23.382,49.398-31.122,75.389c-9.195,30.88-14.784,64.248-8.819,96.274
			c4.889,26.244,22.551,50.397,49.697,56.244c25.809,5.56,51.369-2.044,66.446-24.393c12.937-19.179,15.171-44.808,13.89-67.279
			c-1.703-29.879-8.972-59.422-19.313-87.425c-6.072-16.445-13.135-32.717-21.186-48.55c5.284-8.792,10.868-17.403,16.76-25.797
			c2.704-3.853,5.473-7.664,8.305-11.425c0.488-0.647,0.98-1.292,1.471-1.938c0.205-0.265,0.41-0.529,0.541-0.69
			c1.846-2.302,3.675-4.615,5.55-6.892c6.177-7.497,12.628-14.772,19.363-21.775c6.682-6.951,13.642-13.637,20.893-19.996
			c3.482-3.054,7.032-6.036,10.649-8.934c0.692-0.554,1.391-1.103,2.088-1.652c0.135-0.104,0.259-0.197,0.354-0.267
			c2.307-1.701,4.602-3.418,6.944-5.075c7.646-5.409,15.565-10.431,23.752-14.978c3.926-2.181,7.911-4.252,11.956-6.204
			c2.013-0.971,4.045-1.896,6.08-2.821c0.181-0.082,0.569-0.252,0.975-0.429c0.805-0.33,2.035-0.838,2.324-0.953
			c8.757-3.462,17.756-6.353,26.92-8.53c3.137-0.745,6.298-1.331,9.462-1.948c0.201-0.04,1.955-0.323,2.301-0.396
			c1.216-0.148,2.439-0.271,3.651-0.384c6.478-0.6,12.996-0.757,19.495-0.478c7.699,0.331,8.423,0.426,14.211,1.503
			c6.112,1.139,12.152,2.668,18.066,4.59c2.762,0.898,5.479,1.907,8.196,2.932c4.075,1.537,1.721,0.712,0.839,0.325
			c1.321,0.58,2.632,1.189,3.934,1.813c5.847,2.796,11.512,5.974,16.954,9.491c2.417,1.564,4.756,3.233,7.114,4.883
			c0.188,0.132,1.018,0.761,1.469,1.099c0.891,0.712,1.778,1.429,2.649,2.16c4.687,3.928,9.145,8.126,13.356,12.558
			c8.571,9.023,12.533,14.241,19.293,25.813c2.921,4.999,5.515,10.155,7.936,15.412c1.827,3.964,0.723,1.716,0.37,0.826
			c0.536,1.346,1.06,2.697,1.564,4.055c1.258,3.401,2.401,6.844,3.426,10.325c1.647,5.586,2.977,11.268,3.987,17.003
			c0.232,1.308,0.444,2.623,0.635,3.94c0.029,0.324,0.063,0.704,0.104,1.182c0.282,3.207,0.621,6.41,0.881,9.619
			c1.882,23.319,1.919,46.786,0.045,70.108c-0.438,5.452-0.982,10.895-1.625,16.325c-0.156,1.298-0.317,2.594-0.481,3.888
			c-0.023,0.154-0.045,0.3-0.071,0.477c-0.449,3.018-0.897,6.035-1.393,9.046c-1.806,10.974-4.036,21.878-6.677,32.683
			c-5.323,21.775-12.361,43.076-20.808,63.833c-0.103,0.253-0.549,1.32-0.854,2.055c-0.314,0.729-0.753,1.753-0.86,1.999
			c-1.072,2.445-2.151,4.886-3.256,7.316c-2.492,5.47-5.086,10.891-7.779,16.262c-4.949,9.866-10.23,19.563-15.825,29.078
			c-5.787,9.839-11.905,19.483-18.328,28.921c-3.033,4.456-6.133,8.867-9.3,13.231c-1.586,2.185-3.188,4.359-4.806,6.521
			c-0.81,1.083-1.631,2.156-2.441,3.238c-0.26,0.346-0.447,0.596-0.591,0.789c-0.063,0.079-0.175,0.219-0.362,0.459
			c-28.054,35.882-60.35,68.336-95.628,97.118c-4.05,3.305-8.136,6.568-12.272,9.768c-0.441,0.336-1.119,0.853-1.318,1.002
			c-1.109,0.833-2.214,1.677-3.323,2.511c-2.778,2.085-5.572,4.151-8.383,6.193c-9.295,6.758-18.761,13.281-28.38,19.568
			c-19.603,12.815-39.846,24.648-60.613,35.472C1106.915,1245.601,1091.099,1253.152,1075.141,1259.997z M1892.105,1018.821
			c-33.297-18.094-43.353-73.005-45.447-120.668c15.171,19.089,38.661,39.22,75.255,59.106c38.55,20.95,69.412,29.546,94.376,31.308
			C1976.518,1013.986,1925.823,1037.145,1892.105,1018.821z"/>
		<path style="fill:#C61B34;" d="M1059.995,944.708c0.075,0.141,0.15,0.281,0.224,0.422c-0.031-0.374-0.291-0.974-0.573-1.508
			C1059.785,944.039,1059.906,944.411,1059.995,944.708z"/>
		<path style="fill:#C61B34;" d="M1074.677,956.901c0.287,0.077,0.575,0.154,0.862,0.229c0.16,0.042,0.277,0.07,0.417,0.106
			c0.336,0.019,0.709,0.039,1.099,0.059C1076.352,957.066,1075.223,956.799,1074.677,956.901z"/>
		<path style="fill:#C61B34;" d="M1069.423,955.2c0.475,0.252,1.35,0.528,2.055,0.852c0.171,0.044,0.341,0.091,0.511,0.136
			C1070.507,954.677,1069.002,954.718,1069.423,955.2z"/>
	</g>
	<g>
		<path style="fill:#504842;" d="M2259.293,622.197c-5.014-16.094-13.66-30.999-25.697-42.861
			c-7.348-7.242-15.781-13.206-24.858-17.992c0.802-3.645,1.095-7.149,0.748-9.886c-1.689-13.355-11.284-12.854-29.08-17.486
			c-18.447-4.801-23.902,6.344-26.563,14.959c-2.661,8.616,1.501,22.356,12.58,25.96c11.078,3.605,18.104,5.688,26.294,6.758
			c4.484,0.585,8.467-3.052,11.44-8.199c2.897,1.592,5.736,3.292,8.466,5.156c0.752,0.516,1.498,1.039,2.235,1.575
			c0.371,0.267,0.736,0.536,1.101,0.808c0.143,0.107,0.295,0.223,0.429,0.326c1.457,1.156,2.899,2.326,4.296,3.557
			c2.803,2.472,5.46,5.109,7.947,7.9c1.28,1.434,2.493,2.919,3.696,4.419c0.033,0.045,0.047,0.065,0.091,0.125
			c0.271,0.365,0.544,0.727,0.812,1.095c0.578,0.789,1.14,1.586,1.69,2.392c2.194,3.211,4.184,6.561,5.965,10.02
			c0.893,1.733,1.731,3.494,2.52,5.279c0.191,0.435,0.375,0.873,0.566,1.308c-0.775-1.768-0.018-0.02,0.134,0.359
			c0.385,0.958,0.755,1.921,1.11,2.892c1.434,3.917,2.634,7.918,3.612,11.972c0.498,2.066,0.938,4.144,1.324,6.233
			c0.189,1.028,0.366,2.059,0.53,3.09c0.083,0.521,0.159,1.043,0.239,1.564c0.029,0.191,0.055,0.382,0.082,0.574
			c1.123,9.523,1.381,19.075,0.762,28.646c-0.17,2.63-0.399,5.257-0.682,7.876c-0.135,1.254-0.291,2.506-0.443,3.758
			c-0.017,0.134-0.026,0.216-0.033,0.276c-0.015,0.103-0.036,0.25-0.066,0.456c-0.105,0.731-0.211,1.46-0.321,2.189
			c-0.85,5.591-1.928,11.145-3.2,16.657c-2.823,12.234-6.587,24.243-10.994,35.997c-4.934,13.162-10.482,25.459-17.007,38.331
			c-7.456,14.711-15.686,29.024-24.458,42.989c-0.416,0.661-0.849,1.312-1.267,1.972c4.107,0.877,8.177,2.89,10.73,7.079
			c15.79-24.898,29.892-50.875,40.99-78.217c9.436-23.241,16.477-47.539,19.042-72.548
			C2266.015,660.438,2265.035,640.629,2259.293,622.197z M2250.994,644.036C2250.953,643.713,2250.928,643.478,2250.994,644.036
			L2250.994,644.036z"/>
		<path style="fill:#504842;" d="M2141.116,512.62c-13.566-12.41-18.367-20.736-30.492-14.887c-2.486,1.2-5.269,3.353-7.892,6.011
			c-7.171-4.031-14.755-7.31-22.726-9.588c-16.126-4.61-33.189-4.866-49.545-1.306c-18.367,3.996-35.574,12.832-50.64,23.922
			c-19.819,14.587-36.485,32.751-51.174,52.41c-18.779,25.129-34.099,52.754-47.322,81.152c-0.32,0.686-0.62,1.382-0.937,2.07
			c4.466,1.682,7.782,5.394,10.032,8.832c12-26.3,25.714-51.901,42.205-75.664c1.948-2.807,3.937-5.589,5.968-8.339
			c2.088-2.829,3.704-4.943,5.385-7.074c3.878-4.91,7.907-9.704,12.1-14.349c7.564-8.376,15.673-16.283,24.423-23.421
			c0.979-0.801,1.97-1.585,2.964-2.368c0.133-0.105,0.221-0.174,0.29-0.229c0.046-0.033,0.096-0.07,0.187-0.139
			c0.594-0.446,1.184-0.897,1.779-1.339c2.008-1.492,4.048-2.94,6.123-4.34c3.954-2.672,8.03-5.167,12.222-7.449
			c2.003-1.09,4.034-2.131,6.089-3.118c0.974-0.467,1.954-0.923,2.94-1.366c0.455-0.204,0.911-0.406,1.37-0.606
			c0.185-0.081,0.372-0.16,0.559-0.24c0.024-0.009,0.029-0.011,0.056-0.022c3.961-1.579,7.952-3.04,12.053-4.22
			c3.917-1.126,7.896-2.029,11.916-2.69c0.446-0.072,0.89-0.143,1.335-0.209c0.195-0.029,0.344-0.054,0.466-0.076
			c0.85-0.134,1.724-0.203,2.574-0.289c2.004-0.2,4.018-0.337,6.031-0.411c3.841-0.141,7.691-0.043,11.519,0.292
			c0.857,0.076,1.712,0.164,2.567,0.263c0.084,0.01,0.205,0.018,0.332,0.026c0.413,0.04,0.833,0.124,1.24,0.185
			c1.935,0.298,3.862,0.655,5.776,1.074c3.715,0.814,7.379,1.857,10.967,3.11c1.737,0.606,3.442,1.284,5.149,1.966
			c0.071,0.031,0.118,0.053,0.219,0.098c0.397,0.177,0.796,0.352,1.193,0.53c0.911,0.411,1.813,0.837,2.711,1.275
			c1.334,0.652,2.639,1.358,3.945,2.065c-2.703,5.298-3.589,10.62-0.658,14.064c5.355,6.293,10.924,11.052,19.977,18.387
			c9.051,7.335,22.843,3.352,28.625-3.567C2148.798,536.127,2155.18,525.487,2141.116,512.62z"/>
	</g>
	<path style="fill:#D3D2D2;" d="M315.762,789.679c-34.226-22.625-82.727-20.491-115.29,4.467c-3.166,2.427-6.136,5.015-8.91,7.745
		c-50.92,50.101-35.78,147.691,37.396,168.978c16.336,4.752,34.109,6.351,50.957,3.936c-0.863-1.561-1.726-3.121-2.584-4.686
		c-7.217-13.171-14.199-26.515-20.781-40.046c14.51,1.249,29.39-2.124,39.932-11.89c0.568-0.527,1.091-1.095,1.626-1.65
		c6.307,12.702,12.919,25.259,19.793,37.674c0.824,1.488,1.644,2.978,2.475,4.461c2.001-1.507,3.943-3.109,5.803-4.831
		c13.59-12.589,22.082-29.832,27.494-47.548C366.6,863.965,353.831,814.844,315.762,789.679z"/>
	<path style="fill:#ADA5A0;" d="M230.484,966.16c-69.598-20.245-83.995-113.063-35.568-160.715c2.639-2.594,5.463-5.057,8.475-7.366
		c30.969-23.736,77.097-25.766,109.651-4.247c36.208,23.932,48.352,70.652,36.056,110.906c-5.147,16.85-13.224,33.249-26.148,45.223
		c-1.624,1.504-3.312,2.914-5.05,4.245c0.824,1.488,1.644,2.978,2.475,4.461c2.001-1.507,3.943-3.109,5.803-4.831
		c13.59-12.589,22.082-29.832,27.494-47.548c12.928-42.323,0.159-91.444-37.911-116.609c-34.226-22.625-82.727-20.491-115.29,4.467
		c-3.166,2.427-6.136,5.015-8.91,7.745c-50.92,50.101-35.78,147.691,37.396,168.978c16.336,4.752,34.109,6.351,50.957,3.936
		c-0.863-1.561-1.726-3.121-2.584-4.686C261.79,972.092,245.499,970.527,230.484,966.16z"/>
	<g>
		<path style="fill:#ADA5A0;" d="M2260.655,621.775c-5.228-16.787-14.24-31.812-26.055-43.455
			c-7.173-7.067-15.65-13.203-25.197-18.239c-0.39-0.212-0.864-0.22-1.265-0.03c-0.401,0.187-0.697,0.552-0.792,0.986
			c-0.919,4.197-2.491,8.352-4.425,11.698c-0.189,0.331-0.24,0.728-0.139,1.098c0.106,0.368,0.351,0.68,0.691,0.867
			c3.11,1.711,5.841,3.375,8.343,5.083c0.741,0.51,1.477,1.026,2.202,1.552l1.482,1.1c1.444,1.138,2.865,2.294,4.241,3.506
			c2.775,2.45,5.411,5.066,7.825,7.78c1.265,1.415,2.458,2.879,3.617,4.325l1.159-0.83l-0.925,1.148l0.663,0.891
			c0.568,0.774,1.12,1.558,1.661,2.352c2.129,3.121,4.107,6.443,5.874,9.867c0.881,1.708,1.705,3.447,2.48,5.198l0.245,0.568
			l-0.005,0.003l0.05,0.117c0.022,0.055,0.044,0.114,0.073,0.175l0.317,0.764c0.379,0.942,0.747,1.893,1.098,2.851
			c1.382,3.776,2.586,7.75,3.567,11.815c0.49,2.04,0.925,4.094,1.304,6.159c0.189,1.015,0.363,2.035,0.524,3.057l0.24,1.549
			l0.073-0.011c-0.006,0.065-0.011,0.126-0.011,0.19l-0.028,0.003l0.028,0.003c-0.006,0.114,0,0.22,0.011,0.318
			c0,0.003,0.006,0.003,0.006,0.005c0,0,0,0,0,0.003c0,0,0,0.003,0,0.006c0,0,0,0,0,0.003c0,0,0,0.003,0,0.006c0,0,0,0,0,0.003
			v0.002c1.103,9.414,1.36,18.963,0.752,28.391c-0.167,2.608-0.396,5.213-0.68,7.816c-0.128,1.245-0.284,2.488-0.463,3.954
			l-0.39,2.658c-0.814,5.353-1.884,10.921-3.177,16.553c-2.653,11.472-6.331,23.522-10.946,35.814
			c-4.676,12.486-10.06,24.622-16.937,38.185c-7.039,13.889-15.249,28.312-24.4,42.881l-1.259,1.964
			c-0.251,0.396-0.29,0.886-0.111,1.318c0.184,0.429,0.563,0.744,1.02,0.842c4.492,0.956,7.791,3.118,9.803,6.423
			c0.257,0.421,0.713,0.68,1.21,0.685c0,0,0.005,0,0.011,0c0.49,0,0.942-0.25,1.204-0.663c17.322-27.301,30.77-52.96,41.109-78.441
			c10.5-25.868,16.764-49.728,19.144-72.944C2267.649,658.508,2266.027,639.019,2260.655,621.775z"/>
		<path style="fill:#ADA5A0;" d="M2080.398,492.784c-15.928-4.557-33.312-5.014-50.238-1.327
			c-17.288,3.759-34.504,11.891-51.185,24.166c-18.086,13.312-34.923,30.553-51.47,52.704
			c-17.087,22.859-32.615,49.485-47.473,81.398l-0.937,2.078c-0.167,0.362-0.178,0.775-0.028,1.14
			c0.151,0.368,0.446,0.655,0.82,0.794c3.45,1.301,6.593,4.088,9.341,8.279c0.262,0.407,0.713,0.647,1.193,0.647
			c0.033,0,0.073,0,0.106-0.003c0.519-0.042,0.975-0.36,1.193-0.83c13.276-29.101,27.036-53.78,42.073-75.446
			c1.945-2.795,3.924-5.565,5.947-8.304c2.078-2.815,3.69-4.919,5.356-7.037c3.924-4.971,7.975-9.775,12.038-14.279
			c7.92-8.761,16.085-16.592,24.277-23.274c0.964-0.794,1.951-1.572,2.965-2.369l-0.73-1.245l0,0l1.154,0.917l1.772-1.335
			c1.99-1.477,4.013-2.915,6.069-4.302c3.974-2.686,8.048-5.169,12.105-7.379c1.984-1.079,3.996-2.107,6.025-3.082
			c0.964-0.462,1.933-0.914,2.904-1.349l1.934-0.847c4.61-1.836,8.393-3.16,11.922-4.174c3.885-1.117,7.836-2.009,11.748-2.653
			l1.789-0.284c0.629-0.098,1.27-0.159,1.911-0.22l0.591-0.059c1.968-0.195,3.952-0.332,5.936-0.404
			c3.801-0.142,7.591-0.039,11.342,0.287c0.842,0.075,1.689,0.161,2.525,0.259c0.011,0.003,0.357,0.028,0.367,0.031
			c0.245,0.022,0.496,0.067,0.747,0.106l0.407,0.067c1.906,0.292,3.801,0.644,5.69,1.059c3.634,0.797,7.262,1.828,10.801,3.065
			c1.717,0.596,3.406,1.268,5.256,2.015l1.193,0.532c0.892,0.404,1.783,0.822,2.67,1.254c1.271,0.622,2.508,1.29,3.89,2.037
			c0.346,0.181,0.741,0.215,1.104,0.108c0.368-0.114,0.674-0.37,0.847-0.713c1.744-3.419,4.375-6.995,7.401-10.066
			c0.312-0.317,0.462-0.761,0.396-1.201c-0.061-0.44-0.323-0.827-0.708-1.045C2095.919,498.276,2088.173,495.004,2080.398,492.784z"
			/>
	</g>
	<path style="fill:#C61B34;" d="M1059.995,944.708c0.075,0.141,0.15,0.281,0.224,0.422c-0.031-0.374-0.291-0.974-0.573-1.508
		C1059.785,944.039,1059.906,944.411,1059.995,944.708z"/>
	<path style="fill:#C61B34;" d="M1074.677,956.901c0.287,0.077,0.575,0.154,0.862,0.229c0.16,0.042,0.277,0.07,0.417,0.106
		c0.336,0.019,0.709,0.039,1.099,0.059C1076.352,957.066,1075.223,956.799,1074.677,956.901z"/>
	<path style="fill:#C61B34;" d="M1069.423,955.2c0.475,0.252,1.35,0.528,2.055,0.852c0.171,0.044,0.341,0.091,0.511,0.136
		C1070.507,954.677,1069.002,954.718,1069.423,955.2z"/>
	<path style="fill:#ADA5A0;" d="M290.752,827.884c-18.829-12.445-45.508-11.272-63.419,2.457c-1.742,1.335-3.375,2.759-4.901,4.26
		c-28.01,27.56-19.683,81.242,20.57,92.95c4.378,1.274,8.944,2.125,13.548,2.521c14.51,1.249,29.39-2.124,39.932-11.89
		c0.568-0.527,1.091-1.095,1.626-1.65c6.518-6.746,10.745-15.502,13.496-24.505C318.717,868.746,311.692,841.727,290.752,827.884z"
		/>
	<path style="fill:#E7E5E5;" d="M287.788,832.412c-17.003-11.24-41.096-10.18-57.271,2.217c-1.573,1.207-3.049,2.492-4.426,3.848
		c-25.294,24.888-17.775,73.366,18.577,83.941c16.415,4.773,35.756,3.155,48.295-8.461c6.751-6.254,10.969-14.818,13.657-23.619
		C313.043,869.312,306.698,844.912,287.788,832.412z"/>
</g>
</svg>
